<?xml version="1.0" encoding="iso-8859-1"?>
<!-- Generator: Adobe Illustrator 19.0.0, SVG Export Plug-In . SVG Version: 6.00 Build 0)  -->
<svg version="1.1" id="Layer_1" xmlns="http://www.w3.org/2000/svg" xmlns:xlink="http://www.w3.org/1999/xlink" x="0px" y="0px"
	 viewBox="0 0 511.999 511.999" style="enable-background:new 0 0 511.999 511.999;" xml:space="preserve">
<g>
	<g>
		<path d="M474.424,82.82H37.575C16.856,82.82,0,99.676,0,120.395v271.209c0,20.719,16.856,37.575,37.575,37.575h436.85
			c20.719,0,37.575-16.856,37.574-37.575V120.395C511.999,99.676,495.144,82.82,474.424,82.82z M489.949,391.604
			c0,8.56-6.964,15.525-15.525,15.525H37.575c-8.56,0-15.525-6.964-15.525-15.525V120.395c0-8.56,6.964-15.525,15.525-15.525
			h436.849c8.56,0,15.525,6.964,15.525,15.525V391.604z"/>
	</g>
</g>
<g>
	<g>
		<path d="M109.46,308.339H58.705c-6.09,0-11.025,4.936-11.025,11.025s4.936,11.025,11.025,11.025h50.755
			c6.09,0,11.025-4.936,11.025-11.025S115.549,308.339,109.46,308.339z"/>
	</g>
</g>
<g>
	<g>
		<path d="M208.251,308.339h-50.755c-6.09,0-11.025,4.936-11.025,11.025s4.936,11.025,11.025,11.025h50.755
			c6.09,0,11.025-4.936,11.025-11.025S214.34,308.339,208.251,308.339z"/>
	</g>
</g>
<g>
	<g>
		<path d="M307.042,308.339h-50.755c-6.09,0-11.025,4.936-11.025,11.025s4.936,11.025,11.025,11.025h50.755
			c6.09,0,11.025-4.936,11.025-11.025S313.132,308.339,307.042,308.339z"/>
	</g>
</g>
<g>
	<g>
		<path d="M405.833,308.339h-50.755c-6.09,0-11.025,4.936-11.025,11.025s4.936,11.025,11.025,11.025h50.755
			c6.088,0,11.025-4.936,11.025-11.025S411.923,308.339,405.833,308.339z"/>
	</g>
</g>
<g>
	<g>
		<path d="M239.9,357.366H58.705c-6.09,0-11.025,4.936-11.025,11.025s4.936,11.025,11.025,11.025H239.9
			c6.09,0,11.025-4.936,11.025-11.025S245.99,357.366,239.9,357.366z"/>
	</g>
</g>
<g>
	<g>
		<path d="M124.753,186.727H58.705c-6.09,0-11.025,4.936-11.025,11.025v47.753c0,6.09,4.936,11.025,11.025,11.025h66.048
			c6.09,0,11.025-4.936,11.025-11.025v-47.753C135.778,191.662,130.842,186.727,124.753,186.727z M113.728,234.48H69.73v-25.703
			h43.997V234.48z"/>
	</g>
</g>
<g>
	<g>
		<path d="M453.295,147.283H333.586c-6.09,0-11.025,4.936-11.025,11.025s4.936,11.025,11.025,11.025h119.709
			c6.088,0,11.025-4.936,11.025-11.025S459.385,147.283,453.295,147.283z"/>
	</g>
</g>
<g>
</g>
<g>
</g>
<g>
</g>
<g>
</g>
<g>
</g>
<g>
</g>
<g>
</g>
<g>
</g>
<g>
</g>
<g>
</g>
<g>
</g>
<g>
</g>
<g>
</g>
<g>
</g>
<g>
</g>
</svg>
