<svg id="Capa_1" enable-background="new 0 0 510.822 510.822" height="512" viewBox="0 0 510.822 510.822" width="512" xmlns="http://www.w3.org/2000/svg"><g id="XMLID_176_"><path id="XMLID_183_" d="m257.119 456.961c-86.662 0-162.209-55.315-189.585-135.11l22.305 9.732 11.997-27.496-62.124-27.105-39.712 59.582 24.963 16.639 14.266-21.404c31.534 91.648 118.334 155.162 217.891 155.162 111.233 0 206.546-79.273 226.632-188.495l-29.506-5.426c-17.468 94.982-100.371 163.921-197.127 163.921z"/><path id="XMLID_255_" d="m257.119 53.861c85.802 0 161.146 54.728 188.986 133.652l-26.48-10.883-11.404 27.748 66.23 27.22 36.371-57.193-25.314-16.1-11.508 18.096c-32.332-90.14-118.649-152.54-216.881-152.54-110.099 0-205.238 78.319-226.218 186.225l29.448 5.727c18.246-93.841 101-161.952 196.77-161.952z"/><path id="XMLID_258_" d="m152.014 396.857h210.132v-246.273l-35.831-35.313h-174.301zm30-251.586h132.002l18.13 17.868v203.719h-150.132z"/><path id="XMLID_263_" d="m222.794 177.696h68.64v30h-68.64z"/><path id="XMLID_264_" d="m222.794 241.063h68.64v30h-68.64z"/><path id="XMLID_265_" d="m222.794 304.431h68.64v30h-68.64z"/></g></svg>