<svg width="227" height="180" viewBox="0 0 227 180" fill="none" xmlns="http://www.w3.org/2000/svg">
<path d="M201.409 151.844C201.409 151.844 226.728 130.172 226.728 101.573C226.728 72.9736 210.295 72.968 196.077 36.1312C181.859 -0.705597 141.438 -5.4712 117.008 6.2272C96.2755 16.1616 90.3575 46.0992 72.5865 51.7328C54.8155 57.3664 53.0705 43.5008 24.6116 50.8648C-3.84733 58.2288 10.8356 98.5376 10.8356 98.5376L65.9396 82.068L201.409 151.844Z" fill="#47967E"/>
<path opacity="0.7" d="M201.409 151.844C201.409 151.844 226.728 130.172 226.728 101.573C226.728 72.9736 210.295 72.968 196.077 36.1312C181.859 -0.705597 141.438 -5.4712 117.008 6.2272C96.2755 16.1616 90.3575 46.0992 72.5865 51.7328C54.8155 57.3664 53.0705 43.5008 24.6116 50.8648C-3.84733 58.2288 10.8356 98.5376 10.8356 98.5376L65.9396 82.068L201.409 151.844Z" fill="white"/>
<path d="M103.209 151.76L64.9466 166.695L20.5534 123.385L49.638 119.28L103.209 151.76Z" fill="#47967E"/>
<path opacity="0.5" d="M103.209 151.76L64.9466 166.695L20.5534 123.385L49.638 119.28L103.209 151.76Z" fill="white"/>
<path d="M150.277 171.55C155.35 171.55 159.461 168.875 159.461 165.575C159.461 162.275 155.35 159.6 150.277 159.6C145.205 159.6 141.093 162.275 141.093 165.575C141.093 168.875 145.205 171.55 150.277 171.55Z" fill="#47967E"/>
<path opacity="0.5" d="M150.277 171.55C155.35 171.55 159.461 168.875 159.461 165.575C159.461 162.275 155.35 159.6 150.277 159.6C145.205 159.6 141.093 162.275 141.093 165.575C141.093 168.875 145.205 171.55 150.277 171.55Z" fill="white"/>
<path d="M114.311 131.65L170.379 135.985L157.935 129.735L114.311 131.65Z" fill="#47967E"/>
<path opacity="0.5" d="M114.311 131.65L170.379 135.985L157.935 129.735L114.311 131.65Z" fill="white"/>
<path d="M126.939 114.8L110.304 113.473L112.393 111.065H121.962L126.939 114.8Z" fill="#47967E"/>
<path opacity="0.5" d="M126.939 114.8L110.304 113.473L112.393 111.065H121.962L126.939 114.8Z" fill="white"/>
<path d="M180.877 179.575C187.322 179.575 192.547 176.484 192.547 172.67C192.547 168.857 187.322 165.766 180.877 165.766C174.433 165.766 169.208 168.857 169.208 172.67C169.208 176.484 174.433 179.575 180.877 179.575Z" fill="#47967E"/>
<path opacity="0.5" d="M180.877 179.575C187.322 179.575 192.547 176.484 192.547 172.67C192.547 168.857 187.322 165.766 180.877 165.766C174.433 165.766 169.208 168.857 169.208 172.67C169.208 176.484 174.433 179.575 180.877 179.575Z" fill="white"/>
<path d="M111.728 156.638L105.442 166.712L119.362 169.344L124.752 159.27L111.728 156.638Z" fill="white" stroke="#263238" stroke-linecap="round" stroke-linejoin="round"/>
<path d="M122.507 145.253L116.222 154.448L129.24 158.39L134.63 149.195L122.507 145.253Z" fill="#47967E"/>
<mask id="mask0_1_218" style="mask-type:luminance" maskUnits="userSpaceOnUse" x="116" y="145" width="19" height="14">
<path d="M122.507 145.253L116.222 154.448L129.24 158.39L134.63 149.195L122.507 145.253Z" fill="white"/>
</mask>
<g mask="url(#mask0_1_218)">
<path opacity="0.5" d="M122.507 145.253L116.222 154.448L129.24 158.39L134.63 149.195L122.507 145.253Z" fill="white" stroke="#263238" stroke-miterlimit="10"/>
</g>
<path d="M122.507 145.253L116.222 154.448L129.24 158.39L134.63 149.195L122.507 145.253Z" stroke="#263238" stroke-linecap="round" stroke-linejoin="round"/>
<path d="M136.427 162.775L125.199 165.838L129.688 172.85L142.712 169.781L136.427 162.775Z" fill="#47967E" stroke="#263238" stroke-linecap="round" stroke-linejoin="round"/>
<path d="M168.456 160.978L169.604 169.484C169.604 173.006 173.995 175.868 179.414 175.868C184.832 175.868 189.229 173.006 189.229 169.484L190.411 160.978H168.456Z" fill="#47967E" stroke="#263238" stroke-linecap="round" stroke-linejoin="round"/>
<path d="M179.425 168.129C185.496 168.129 190.417 164.927 190.417 160.978C190.417 157.028 185.496 153.826 179.425 153.826C173.354 153.826 168.433 157.028 168.433 160.978C168.433 164.927 173.354 168.129 179.425 168.129Z" fill="#47967E" stroke="#263238" stroke-linecap="round" stroke-linejoin="round"/>
<path d="M179.425 167.059C184.589 167.059 188.776 164.336 188.776 160.978C188.776 157.619 184.589 154.896 179.425 154.896C174.261 154.896 170.075 157.619 170.075 160.978C170.075 164.336 174.261 167.059 179.425 167.059Z" fill="#47967E" stroke="#263238" stroke-linecap="round" stroke-linejoin="round"/>
<path d="M179.425 167.065C184.5 167.065 188.615 164.833 188.615 162.081C188.615 159.328 184.5 157.097 179.425 157.097C174.35 157.097 170.235 159.328 170.235 162.081C170.235 164.833 174.35 167.065 179.425 167.065Z" fill="#263238" stroke="#263238" stroke-linecap="round" stroke-linejoin="round"/>
<path d="M182.737 144.654C181.141 143.651 178.719 143.741 177.749 145.594C176.314 148.294 177.342 153.294 176.825 153.994C176.308 154.694 174.776 154.896 174.058 153.395C173.341 151.894 173.341 149.895 172.417 149.794C171.492 149.694 170.264 150.097 170.057 152.398C169.851 154.7 170.264 157.298 171.906 158.497C173.547 159.695 175.39 159.298 175.924 159.802C176.458 160.306 175.924 161.09 175.924 161.605C175.924 163.845 178.926 164.965 180.826 164.405C183.592 163.604 183.288 160.899 183.696 159.802C184.103 158.704 186.365 158.598 187.186 156.901C188.006 155.204 189.235 151.794 187.49 150.494C185.745 149.195 184.413 149.794 184.212 151.194C183.973 152.306 183.588 153.383 183.064 154.398C184.293 152.029 185.498 146.39 182.737 144.654Z" fill="#47967E"/>
<mask id="mask1_1_218" style="mask-type:luminance" maskUnits="userSpaceOnUse" x="170" y="144" width="19" height="21">
<path d="M182.737 144.654C181.141 143.651 178.719 143.741 177.749 145.594C176.314 148.294 177.342 153.294 176.825 153.994C176.308 154.694 174.776 154.896 174.058 153.395C173.341 151.894 173.341 149.895 172.417 149.794C171.492 149.694 170.264 150.097 170.057 152.398C169.851 154.7 170.264 157.298 171.906 158.497C173.547 159.695 175.39 159.298 175.924 159.802C176.458 160.306 175.924 161.09 175.924 161.605C175.924 163.845 178.926 164.965 180.826 164.405C183.592 163.604 183.288 160.899 183.696 159.802C184.103 158.704 186.365 158.598 187.186 156.901C188.006 155.204 189.235 151.794 187.49 150.494C185.745 149.195 184.413 149.794 184.212 151.194C183.973 152.306 183.588 153.383 183.064 154.398C184.293 152.029 185.498 146.39 182.737 144.654Z" fill="white"/>
</mask>
<g mask="url(#mask1_1_218)">
<path opacity="0.2" d="M182.737 144.654C181.141 143.651 178.719 143.741 177.749 145.594C176.314 148.294 177.342 153.294 176.825 153.994C176.308 154.694 174.776 154.896 174.058 153.395C173.341 151.894 173.341 149.895 172.417 149.794C171.492 149.694 170.264 150.097 170.057 152.398C169.851 154.7 170.264 157.298 171.906 158.497C173.547 159.695 175.39 159.298 175.924 159.802C176.458 160.306 175.924 161.09 175.924 161.605C175.924 163.845 178.926 164.965 180.826 164.405C183.592 163.604 183.288 160.899 183.696 159.802C184.103 158.704 186.365 158.598 187.186 156.901C188.006 155.204 189.235 151.794 187.49 150.494C185.745 149.195 184.413 149.794 184.212 151.194C183.973 152.306 183.588 153.383 183.064 154.398C184.293 152.029 185.498 146.39 182.737 144.654Z" fill="black"/>
</g>
<path d="M182.737 144.654C181.141 143.651 178.719 143.741 177.749 145.594C176.314 148.294 177.342 153.294 176.825 153.994C176.308 154.694 174.776 154.896 174.058 153.395C173.341 151.894 173.341 149.895 172.417 149.794C171.492 149.694 170.264 150.097 170.057 152.398C169.851 154.7 170.264 157.298 171.906 158.497C173.547 159.695 175.39 159.298 175.924 159.802C176.458 160.306 175.924 161.09 175.924 161.605C175.924 163.845 178.926 164.965 180.826 164.405C183.592 163.604 183.288 160.899 183.696 159.802C184.103 158.704 186.365 158.598 187.186 156.901C188.006 155.204 189.235 151.794 187.49 150.494C185.745 149.195 184.413 149.794 184.212 151.194C183.973 152.306 183.588 153.383 183.064 154.398C184.293 152.029 185.498 146.39 182.737 144.654Z" stroke="#263238" stroke-linecap="round" stroke-linejoin="round"/>
<path d="M180.212 145.393C179.746 145.692 179.356 146.09 179.072 146.558C178.787 147.025 178.616 147.55 178.57 148.092C178.467 149.895 178.57 155.596 177.852 156.397C177.135 157.198 174.776 156.996 173.26 155.596C171.745 154.196 172.417 151.2 172.417 151.2" stroke="#263238" stroke-width="0.5" stroke-linecap="round" stroke-linejoin="round"/>
<path d="M172.87 157.36C173.402 157.764 174.017 158.05 174.672 158.2C176.521 158.598 177.852 157.702 178.162 158.598C178.472 159.494 177.852 162.702 177.852 162.702" stroke="#263238" stroke-width="0.5" stroke-linecap="round" stroke-linejoin="round"/>
<path d="M171.802 156.296C171.994 156.559 172.213 156.801 172.457 157.018" stroke="#263238" stroke-width="0.5" stroke-linecap="round" stroke-linejoin="round"/>
<path d="M180.177 161.062C180.281 159.57 180.292 158.074 180.212 156.582C180.028 154.342 181.095 150.181 181.36 148.299" stroke="#263238" stroke-width="0.5" stroke-linecap="round" stroke-linejoin="round"/>
<path d="M180.005 163.402C180.005 163.402 180.062 162.792 180.125 161.896" stroke="#263238" stroke-width="0.5" stroke-linecap="round" stroke-linejoin="round"/>
<path d="M187.105 153.378C187.157 152.891 187.186 152.594 187.186 152.594" stroke="#263238" stroke-width="0.5" stroke-linecap="round" stroke-linejoin="round"/>
<path d="M182.261 161.599C182.261 161.599 182.674 158.301 183.495 157.679C184.316 157.058 186.669 156.677 186.876 155.176C186.91 154.941 186.939 154.717 186.967 154.51" stroke="#263238" stroke-width="0.5" stroke-linecap="round" stroke-linejoin="round"/>
<path d="M185.751 151.295C185.536 151.436 185.364 151.631 185.255 151.86C185.145 152.089 185.103 152.343 185.131 152.594C185.173 153.194 185.042 153.793 184.753 154.323C184.464 154.854 184.028 155.295 183.495 155.596" stroke="#263238" stroke-width="0.5" stroke-linecap="round" stroke-linejoin="round"/>
<path d="M181.474 147.157C181.505 146.597 181.494 146.035 181.44 145.477" stroke="#263238" stroke-width="0.5" stroke-linecap="round" stroke-linejoin="round"/>
<path d="M142.385 144.962L143.906 160.586V162.238C143.906 164.478 147.132 166.253 151.115 166.253C155.099 166.253 158.325 164.455 158.325 162.238V160.586L159.708 144.799L142.385 144.962Z" fill="white" stroke="#263238" stroke-linecap="round" stroke-linejoin="round"/>
<path d="M158.394 159.74L159.192 150.64C158.118 152.27 154.915 153.44 151.127 153.44C147.138 153.44 143.803 152.13 142.913 150.366L143.82 159.684C145.289 160.877 148.004 161.683 151.127 161.683C154.249 161.683 156.924 160.916 158.394 159.74Z" fill="#47967E" stroke="#263238" stroke-linecap="round" stroke-linejoin="round"/>
<path d="M142.672 147.907V147.801L142.597 147.174L142.672 147.907Z" fill="white" stroke="#263238" stroke-linecap="round" stroke-linejoin="round"/>
<path d="M159.984 142.643C158.457 140.762 155.065 139.446 151.115 139.446C147.166 139.446 143.774 140.762 142.241 142.643H141.375V144.883C141.375 147.885 145.737 150.315 151.133 150.315C156.528 150.315 160.891 147.885 160.891 144.883V142.643H159.984Z" fill="#47967E" stroke="#263238" stroke-linecap="round" stroke-linejoin="round"/>
<path opacity="0.2" d="M159.984 142.643C158.457 140.762 155.065 139.446 151.115 139.446C147.166 139.446 143.774 140.762 142.241 142.643H141.375V144.883C141.375 147.885 145.737 150.315 151.133 150.315C156.528 150.315 160.891 147.885 160.891 144.883V142.643H159.984Z" fill="black"/>
<path d="M151.115 148.075C156.495 148.075 160.856 145.643 160.856 142.643C160.856 139.643 156.495 137.211 151.115 137.211C145.736 137.211 141.375 139.643 141.375 142.643C141.375 145.643 145.736 148.075 151.115 148.075Z" fill="white" stroke="#263238" stroke-linecap="round" stroke-linejoin="round"/>
<path d="M158.864 139.614C157.527 137.967 154.565 136.814 151.115 136.814C147.666 136.814 144.704 137.962 143.366 139.614H142.626V141.562C142.626 144.183 146.432 146.306 151.133 146.306C155.834 146.306 159.639 144.183 159.639 141.562V139.614H158.864Z" fill="#47967E" stroke="#263238" stroke-linecap="round" stroke-linejoin="round"/>
<path d="M151.115 144.357C155.814 144.357 159.622 142.233 159.622 139.614C159.622 136.994 155.814 134.87 151.115 134.87C146.417 134.87 142.609 136.994 142.609 139.614C142.609 142.233 146.417 144.357 151.115 144.357Z" fill="white" stroke="#263238" stroke-linecap="round" stroke-linejoin="round"/>
<path d="M65.2565 93.5536C65.2565 93.5536 65.9224 93.1224 70.147 94.8528C74.3717 96.5832 76.0305 96.208 80.1404 95.5024C85.0768 94.6624 89.1751 93.8224 89.6688 95.7712C90.524 99.1312 87.0685 99.092 80.8521 99.7416C74.6357 100.391 71.031 98.5376 69.0335 97.6696C68.114 97.3013 67.2238 96.867 66.3701 96.3704L65.2565 93.5536Z" fill="white" stroke="#263238" stroke-linecap="round" stroke-linejoin="round"/>
<path d="M55.7052 95.2896C55.7052 95.2896 61.2615 101.573 63.701 99.8368C66.1405 98.1008 65.9224 92.4728 63.701 90.7368C61.4796 89.0008 55.2632 92.2544 55.7052 95.2896Z" fill="white" stroke="#263238" stroke-linecap="round" stroke-linejoin="round"/>
<path d="M72.598 77.952C72.598 77.952 72.8219 83.804 71.2663 87.7016C69.7108 91.5992 66.8236 94.2032 66.3816 96.3704C65.9396 98.5376 66.1577 101.573 63.9363 102.441C61.715 103.309 61.715 101.791 61.9388 100.055C62.1627 98.3192 62.6047 91.8232 62.6047 91.8232L55.2632 96.152C55.2632 96.152 57.2607 101.573 53.0418 102.222C48.8229 102.872 43.7143 96.5888 43.0485 91.84C42.3826 87.0912 45.046 76.4512 49.7126 73.6344C54.3792 70.8176 60.3718 71.2544 63.4886 71.2544C66.6054 71.2544 71.2548 73.4048 72.598 77.952Z" fill="white" stroke="#263238" stroke-linecap="round" stroke-linejoin="round"/>
<path d="M54.8901 71.9376C54.8901 71.9376 53.7421 72.4976 51.7388 75.572C49.7356 78.6464 53.7421 81.2952 55.8946 79.9008C58.0471 78.5064 56.1759 75.572 57.7544 74.172C58.6624 73.4204 59.2718 72.3821 59.4764 71.2376L54.8901 71.9376Z" fill="#263238"/>
<path d="M48.4498 76.2664C47.9366 76.6239 47.5056 77.082 47.1844 77.6114C46.8631 78.1408 46.6587 78.7299 46.5843 79.3408C46.4408 81.2952 50.0283 77.6608 50.4531 75.9808C50.8778 74.3008 48.4498 76.2664 48.4498 76.2664Z" fill="#263238"/>
<path d="M61.2615 71.8872C60.7521 72.79 60.5038 73.8108 60.5432 74.8407C60.5827 75.8705 60.9083 76.8704 61.4854 77.7336C63.4829 80.7688 67.9256 82.068 69.6993 79.9008C71.473 77.7336 72.1445 76.6528 71.4787 75.572C70.8129 74.4912 64.3726 70.1512 61.2615 71.8872Z" fill="#47967E" stroke="#263238" stroke-linecap="round" stroke-linejoin="round"/>
<path d="M77.6951 61.2695C76.852 61.3588 75.9991 61.2695 75.1947 61.0076C74.3903 60.7456 73.6533 60.3173 73.0342 59.7519C70.8128 57.8031 68.8096 53.4687 67.9256 53.6815C67.0417 53.8943 63.9076 60.1831 63.9076 60.1831C63.9076 60.1831 58.5752 60.6199 58.1332 62.1319C57.6912 63.6439 60.1307 70.8007 62.1512 73.8359C63.0934 75.1878 64.3477 76.3051 65.8132 77.0978C67.2787 77.8905 68.9145 78.3365 70.589 78.3999C73.2523 78.3999 81.2482 79.0495 82.3617 76.4455C83.4753 73.8415 82.5798 66.0463 82.5798 66.0463C82.5798 66.0463 86.1387 62.5799 84.5831 61.9303C83.0276 61.2807 77.6951 61.2695 77.6951 61.2695Z" fill="white" stroke="#263238" stroke-linecap="round" stroke-linejoin="round"/>
<path d="M76.616 72.1112C76.3462 71.7696 76.0879 71.4224 75.8354 71.064C75.4163 70.4592 74.4233 69.5352 72.5119 70.1232C69.7911 70.9576 67.9199 73.4832 70.9391 75.572C73.7804 77.56 79.486 75.768 76.616 72.1112Z" fill="#263238"/>
<path d="M63.9249 60.1832C63.9249 60.1832 67.0359 61.9192 68.8096 61.2696C70.5833 60.62 69.4754 53.2504 67.9256 53.6816C66.3758 54.1128 63.701 57.3664 63.9249 60.1832Z" fill="white" stroke="#263238" stroke-linecap="round" stroke-linejoin="round"/>
<path d="M84.5831 61.9192C84.5831 61.9192 81.7131 61.7008 79.9165 63.6496C78.1199 65.5984 79.2507 67.5696 81.6959 67.984C84.1411 68.3984 85.4671 61.9192 84.5831 61.9192Z" fill="white" stroke="#263238" stroke-linecap="round" stroke-linejoin="round"/>
<path d="M67.2598 74.0544C67.2598 74.0544 64.3898 71.8872 65.0384 73.6176C65.687 75.348 66.8121 75.572 67.9084 75.1352C69.0048 74.6984 67.2598 74.0544 67.2598 74.0544Z" fill="#47967E" stroke="#263238" stroke-linecap="round" stroke-linejoin="round"/>
<path d="M65.6756 68.6224C65.5091 69.1824 65.0384 69.5744 64.6251 69.4624C64.2119 69.3504 64.011 68.7904 64.1774 68.2136C64.3439 67.6368 64.8146 67.2616 65.2278 67.3736C65.6411 67.4856 65.842 68.0512 65.6756 68.6224Z" fill="#263238"/>
<path d="M72.5234 73.7352C71.9896 74.0376 71.3754 73.9928 71.1687 73.6288C70.9621 73.2648 71.2032 72.7328 71.7427 72.4304C71.9399 72.2774 72.1891 72.2028 72.4403 72.2215C72.6916 72.2402 72.9262 72.3508 73.0974 72.5312C73.304 72.8952 73.0515 73.4328 72.5234 73.7352Z" fill="white"/>
<path d="M52.5998 87.4888C52.5998 87.4888 51.934 92.2544 52.818 94.2088C53.7019 96.1632 54.5974 103.527 56.3768 103.729C58.1562 103.93 57.4846 99.8088 57.4846 99.176C57.4846 98.5432 57.7084 91.5936 57.7084 91.5936C57.7084 91.5936 59.264 88.34 60.1479 86.6096" fill="white"/>
<path d="M52.5998 87.4888C52.5998 87.4888 51.934 92.2544 52.818 94.2088C53.7019 96.1632 54.5974 103.527 56.3768 103.729C58.1562 103.93 57.4846 99.8088 57.4846 99.176C57.4846 98.5432 57.7084 91.5936 57.7084 91.5936C57.7084 91.5936 59.264 88.34 60.1479 86.6096" stroke="#263238" stroke-linecap="round" stroke-linejoin="round"/>
<path d="M45.2699 87.2704C45.2699 87.2704 51.2682 85.5344 51.934 92.036" stroke="#263238" stroke-linecap="round" stroke-linejoin="round"/>
<path d="M62.5932 91.84C62.5932 91.84 67.7018 89.236 67.9256 83.6024" stroke="#263238" stroke-linecap="round" stroke-linejoin="round"/>
<path d="M0.847992 100.705L4.63065 99.8704" stroke="#263238" stroke-linecap="round" stroke-linejoin="round"/>
<path d="M32.418 122.483L62.9204 114.044C63.8899 113.944 64.8652 114.173 65.6813 114.694L115.315 145.634C115.527 145.767 115.691 145.96 115.786 146.188C115.881 146.415 115.902 146.666 115.846 146.905C115.79 147.145 115.661 147.362 115.474 147.527C115.288 147.692 115.054 147.798 114.804 147.829L73.0629 160.513L32.418 122.483Z" fill="#47967E" stroke="#263238" stroke-linecap="round" stroke-linejoin="round"/>
<path d="M50.2522 124.264L54.5744 127.17L59.5682 125.793L55.2517 122.892L50.2522 124.264Z" fill="#263238"/>
<path d="M52.9442 132.39L48.6277 129.483L43.6282 130.861L47.9504 133.767L52.9442 132.39Z" fill="#263238"/>
<path d="M61.1123 126.045L65.4287 128.946L70.4225 127.568L66.1061 124.667L61.1123 126.045Z" fill="#263238"/>
<path d="M66.1462 129.427L70.4627 132.328L75.4565 130.95L71.14 128.05L66.1462 129.427Z" fill="#263238"/>
<path d="M55.2861 127.646L59.6026 130.553L64.5964 129.175L60.2799 126.274L55.2861 127.646Z" fill="#263238"/>
<path d="M44.4261 125.871L48.7426 128.778L53.7421 127.4L49.4199 124.494L44.4261 125.871Z" fill="#263238"/>
<path d="M78.8948 144.312L74.5725 141.406L69.5845 142.783L73.901 145.69L78.8948 144.312Z" fill="#263238"/>
<path d="M73.0629 145.919L68.7465 143.013L63.7527 144.39L68.0749 147.291L73.0629 145.919Z" fill="#263238"/>
<path d="M57.9725 135.772L53.656 132.866L48.6622 134.243L52.9787 137.144L57.9725 135.772Z" fill="#263238"/>
<path d="M83.923 147.694L79.6065 144.794L74.6127 146.166L78.9292 149.072L83.923 147.694Z" fill="#263238"/>
<path d="M63.0064 139.154L58.6842 136.248L53.6904 137.626L58.0126 140.526L63.0064 139.154Z" fill="#263238"/>
<path d="M68.0347 142.537L63.7182 139.63L58.7244 141.008L63.0409 143.914L68.0347 142.537Z" fill="#263238"/>
<path d="M71.1745 132.81L75.4909 135.71L80.4847 134.333L76.1683 131.432L71.1745 132.81Z" fill="#263238"/>
<path d="M49.4601 129.254L53.7765 132.16L58.7703 130.782L54.4539 127.882L49.4601 129.254Z" fill="#263238"/>
<path d="M89.7491 146.087L85.4326 143.186L80.4388 144.564L84.7553 147.465L89.7491 146.087Z" fill="#263238"/>
<path d="M74.6587 135.94L70.3422 133.039L65.3484 134.411L69.6649 137.318L74.6587 135.94Z" fill="#263238"/>
<path d="M63.7986 134.165L59.4821 131.258L54.4883 132.636L58.8048 135.542L63.7986 134.165Z" fill="#263238"/>
<path d="M42.882 125.625L40.3564 123.922L36.9411 124.858L38.9386 126.711L42.882 125.625Z" fill="#263238"/>
<path d="M47.9103 129.007L43.5938 126.101L39.5012 127.232L42.882 130.357L42.9165 130.379L47.9103 129.007Z" fill="#263238"/>
<path d="M60.3144 131.034L64.6366 133.935L69.6304 132.558L65.3082 129.657L60.3144 131.034Z" fill="#263238"/>
<path d="M68.8326 137.547L64.5161 134.646L59.5223 136.018L63.8388 138.925L68.8326 137.547Z" fill="#263238"/>
<path d="M90.547 141.098L86.2305 138.197L81.2367 139.574L85.5532 142.475L90.547 141.098Z" fill="#263238"/>
<path d="M76.2027 136.192L80.5249 139.093L85.5187 137.715L81.2022 134.814L76.2027 136.192Z" fill="#263238"/>
<path d="M84.7209 142.705L80.4044 139.804L75.4106 141.182L79.7271 144.082L84.7209 142.705Z" fill="#263238"/>
<path d="M79.6869 139.322L75.3704 136.422L70.3766 137.794L74.6988 140.7L79.6869 139.322Z" fill="#263238"/>
<path d="M73.8608 140.93L69.5443 138.029L64.5505 139.401L68.867 142.307L73.8608 140.93Z" fill="#263238"/>
<path d="M52.1464 137.374L47.8299 134.473L47.4453 134.579L50.8491 137.732L52.1464 137.374Z" fill="#263238"/>
<path d="M90.4666 146.569L85.4728 147.946L90.6503 151.424L95.5178 149.962L90.4666 146.569Z" fill="#263238"/>
<path d="M84.6348 148.176L79.641 149.548L84.9734 153.132L89.8352 151.67L84.6348 148.176Z" fill="#263238"/>
<path d="M62.2086 144.138L57.8921 141.238L55.3837 141.926L58.7933 145.085L62.2086 144.138Z" fill="#263238"/>
<path d="M95.5809 144.48L91.2587 141.579L86.2649 142.957L90.5872 145.858L95.5809 144.48Z" fill="#263238"/>
<path d="M67.2368 147.526L62.9203 144.62L59.3558 145.606L62.7596 148.758L67.2368 147.526Z" fill="#263238"/>
<path d="M72.2708 150.909L67.9543 148.002L63.3221 149.279L66.7317 152.432L72.2708 150.909Z" fill="#263238"/>
<path d="M78.0969 149.302L73.7804 146.395L68.7866 147.773L73.1031 150.679L78.0969 149.302Z" fill="#263238"/>
<path d="M106.303 144.743L103.433 142.99L97.1193 144.732L101.998 148.014L105.798 146.894C106.048 146.872 106.285 146.774 106.475 146.613C106.664 146.452 106.797 146.237 106.853 145.998C106.909 145.759 106.886 145.509 106.787 145.283C106.689 145.058 106.519 144.869 106.303 144.743Z" fill="#263238"/>
<path d="M72.9826 151.385L67.2942 152.953L71.7714 157.097L78.4815 155.081L72.9826 151.385Z" fill="#263238"/>
<path d="M98.1066 139.692L92.0968 141.35L96.4133 144.25L102.699 142.52L98.1066 139.692Z" fill="#263238"/>
<path d="M96.2927 144.962L91.2989 146.339L96.3271 149.722L101.195 148.26L96.2927 144.962Z" fill="#263238"/>
<path d="M61.1984 120.574L65.2795 119.448L62.6448 117.824L58.7072 118.899L61.1984 120.574Z" fill="#263238"/>
<path d="M84.1583 153.378L78.8087 149.778L73.8149 151.155L79.2908 154.84L84.1583 153.378Z" fill="#263238"/>
<path d="M61.9101 121.055L66.2266 123.956L70.6292 122.746L66.0372 119.918L61.9101 121.055Z" fill="#263238"/>
<path d="M71.9723 127.82L76.2888 130.721L81.317 129.338L76.7308 126.51L71.9723 127.82Z" fill="#263238"/>
<path d="M66.9384 124.438L71.2606 127.338L75.9731 126.039L71.3811 123.211L66.9384 124.438Z" fill="#263238"/>
<path d="M77.0006 131.202L81.3171 134.103L86.661 132.636L82.0747 129.802L77.0006 131.202Z" fill="#263238"/>
<path d="M82.0346 134.585L86.351 137.486L92.0049 135.929L87.4187 133.101L82.0346 134.585Z" fill="#263238"/>
<path d="M92.7626 136.394L87.0628 137.967L91.3793 140.868L97.3489 139.227L92.7626 136.394Z" fill="#263238"/>
<path d="M56.084 122.662L60.4005 125.563L65.3943 124.186L61.0778 121.285L56.084 122.662Z" fill="#263238"/>
<path d="M45.9988 133.246L46.8828 134.058L47.1124 133.991L45.9988 133.246Z" fill="#263238"/>
<path d="M43.7143 125.395L48.7081 124.018L46.194 122.326L41.1887 123.693L43.7143 125.395Z" fill="#263238"/>
<path d="M49.5404 123.788L54.5342 122.41L52.0316 120.725L47.0263 122.097L49.5404 123.788Z" fill="#263238"/>
<path d="M52.8696 120.501L55.3723 122.181L60.3661 120.803L57.8691 119.129L52.8696 120.501Z" fill="#263238"/>
<path d="M57.1746 140.762L52.8581 137.855L51.4117 138.253L54.8212 141.406L57.1746 140.762Z" fill="#263238"/>
<path d="M73.0342 160.513L59.8322 108.371C59.5315 107.186 58.8833 106.112 57.9667 105.28L22.3787 72.9064C22.2275 72.7694 22.0352 72.6833 21.83 72.6608C21.6249 72.6383 21.4178 72.6807 21.2392 72.7816C21.0606 72.8825 20.9199 73.0367 20.8377 73.2215C20.7556 73.4062 20.7364 73.6118 20.783 73.808L32.418 122.483L73.0342 160.513Z" fill="#47967E" stroke="#263238" stroke-linecap="round" stroke-linejoin="round"/>
<path d="M53.082 103.146L57.1516 106.618C57.1516 106.618 58.4202 106.865 59.6887 113.064" stroke="#263238" stroke-width="0.5" stroke-linecap="round" stroke-linejoin="round"/>
<path d="M60.4521 116.284L67.9543 148.002" stroke="#263238" stroke-width="0.5" stroke-linecap="round" stroke-linejoin="round"/>
<path d="M38.4852 101.73C40.2473 105.907 40.0866 109.934 38.1235 110.723C36.1605 111.513 33.1355 108.763 31.3733 104.563C29.6111 100.363 29.7718 96.3592 31.7349 95.5752C33.698 94.7912 36.723 97.552 38.4852 101.73Z" fill="#47967E"/>
<path opacity="0.6" d="M38.4852 101.73C40.2473 105.907 40.0866 109.934 38.1235 110.723C36.1605 111.513 33.1355 108.763 31.3733 104.563C29.6111 100.363 29.7718 96.3592 31.7349 95.5752C33.698 94.7912 36.723 97.552 38.4852 101.73Z" fill="white"/>
<path d="M37.1993 108.537C38.5946 107.977 38.7091 105.114 37.455 102.142C36.2009 99.1708 34.0531 97.2165 32.6578 97.777C31.2625 98.3375 31.148 101.201 32.4021 104.172C33.6562 107.143 35.804 109.098 37.1993 108.537Z" stroke="#263238" stroke-miterlimit="10"/>
<path d="M41.2059 118.86C42.1243 121.027 41.7455 123.234 40.3679 123.788C38.9903 124.342 37.1305 123.032 36.2121 120.87C35.2937 118.709 35.6783 116.497 37.0559 115.942C38.4335 115.388 40.2933 116.698 41.2059 118.86Z" fill="#263238"/>
<path d="M39.306 122.528C38.4393 122.528 37.4979 121.761 37.01 120.562C36.7353 119.946 36.64 119.268 36.7345 118.602C36.7597 118.325 36.8588 118.058 37.0218 117.83C37.1849 117.601 37.4064 117.417 37.6644 117.298C38.6344 116.906 39.8743 117.729 40.4827 119.168C41.0854 120.607 40.7984 122.041 39.8283 122.433C39.6621 122.497 39.4848 122.529 39.306 122.528ZM38.158 117.762C38.0594 117.761 37.9617 117.781 37.871 117.818C37.706 117.905 37.5666 118.031 37.4661 118.185C37.3656 118.339 37.3073 118.515 37.297 118.698C37.2149 119.269 37.2984 119.851 37.5381 120.378C38.003 121.498 38.9501 122.203 39.6045 121.94C40.2588 121.677 40.4138 120.518 39.9431 119.409C39.5126 118.429 38.732 117.762 38.158 117.762Z" fill="#47967E"/>
<g opacity="0.5">
<path d="M39.306 122.528C38.4393 122.528 37.4979 121.761 37.01 120.562C36.7353 119.946 36.64 119.268 36.7345 118.602C36.7597 118.325 36.8588 118.058 37.0218 117.83C37.1849 117.601 37.4064 117.417 37.6644 117.298C38.6344 116.906 39.8743 117.729 40.4827 119.168C41.0854 120.607 40.7984 122.041 39.8283 122.433C39.6621 122.497 39.4848 122.529 39.306 122.528ZM38.158 117.762C38.0594 117.761 37.9617 117.781 37.871 117.818C37.706 117.905 37.5666 118.031 37.4661 118.185C37.3656 118.339 37.3073 118.515 37.297 118.698C37.2149 119.269 37.2984 119.851 37.5381 120.378C38.003 121.498 38.9501 122.203 39.6045 121.94C40.2588 121.677 40.4138 120.518 39.9431 119.409C39.5126 118.429 38.732 117.762 38.158 117.762Z" fill="white"/>
</g>
<path d="M51.4403 119.554L48.1743 124.594C48.0901 124.717 48.0452 124.861 48.0452 125.009C48.0452 125.156 48.0901 125.301 48.1743 125.423L55.1656 135.369C55.2269 135.457 55.3064 135.532 55.3991 135.588C55.4918 135.645 55.5957 135.681 55.7039 135.696C55.8121 135.711 55.9223 135.703 56.0273 135.674C56.1323 135.645 56.2299 135.594 56.3136 135.526L59.9355 132.642C60.0799 132.528 60.1774 132.368 60.2101 132.19C60.2428 132.012 60.2085 131.828 60.1135 131.673L52.7605 119.582C52.6948 119.47 52.6002 119.375 52.4859 119.309C52.3716 119.242 52.2416 119.206 52.1086 119.203C51.9756 119.2 51.8441 119.231 51.7269 119.293C51.6098 119.354 51.5111 119.444 51.4403 119.554Z" fill="#263238"/>
<path d="M45.7578 126.235C45.7578 126.235 54.804 124.768 61.0204 137.2L62.5645 135.346C62.5645 135.346 56.5776 125.619 51.6986 124.751C46.8196 123.883 45.046 123.878 45.046 123.878L45.7578 126.235Z" fill="#47967E"/>
<path opacity="0.5" d="M45.7578 126.235C45.7578 126.235 54.804 124.768 61.0204 137.2L62.5645 135.346C62.5645 135.346 56.5776 125.619 51.6986 124.751C46.8196 123.883 45.046 123.878 45.046 123.878L45.7578 126.235Z" fill="white"/>
<path d="M6.74297 99.4056L21.5062 96.152" stroke="#263238" stroke-linecap="round" stroke-linejoin="round"/>
<path d="M100.477 130.766C98.7074 131.038 96.9232 131.212 95.1332 131.286C92.3608 131.393 91.1841 131.393 91.6089 132.02C92.0336 132.647 95.3513 133.269 96.5223 133.476C97.6933 133.683 100.477 130.766 100.477 130.766Z" fill="white" stroke="#263238" stroke-miterlimit="10"/>
<path d="M204.578 153.418L199.636 150.898" stroke="#263238" stroke-linecap="round" stroke-linejoin="round"/>
<path d="M105.856 94.5616C105.856 94.5616 106.894 92.7864 107.331 94.9872L105.856 94.5616Z" fill="#263238"/>
<path d="M196.576 149.335L76.0822 87.92" stroke="#263238" stroke-linecap="round" stroke-linejoin="round"/>
<path d="M79.2506 111.972L104.57 127.898L125.395 119.61L97.3431 105.7L79.2506 111.972Z" fill="#263238" stroke="#263238" stroke-linecap="round" stroke-linejoin="round"/>
<path d="M95.5236 108.651L85.4326 112.129" stroke="white" stroke-width="0.5" stroke-linecap="round" stroke-linejoin="round"/>
<path d="M87.0169 113.288L105.224 124.488L120.062 118.888" stroke="white" stroke-width="0.5" stroke-linecap="round" stroke-linejoin="round"/>
<path d="M183.575 36.7136C183.575 36.7136 198.074 38.9536 202.741 46.536C207.408 54.1184 204.073 66.0352 202.517 70.1512C201.111 73.8864 205.267 77.0056 207.821 79.0328C213.561 83.58 216.517 89.9976 213.532 96.9808C211.672 101.326 203.401 103.275 204.52 108.506C205.64 113.736 210.513 121.072 204.297 126.493C197.736 132.205 187.892 129.259 182.14 123.922C175.671 117.919 173.444 107.475 176.756 99.4056C180.774 89.656 182.972 83.3728 179.196 79.2456C175.419 75.1184 170.534 72.5256 170.534 66.6792C170.534 60.8328 175.866 59.0968 178.088 53.2392C180.309 47.3816 177.198 41.3224 177.198 41.3224L183.575 36.7136Z" fill="#263238" stroke="#263238" stroke-linecap="round" stroke-linejoin="round"/>
<path d="M197.156 46.8272C199.957 48.8936 202.506 52.3712 201.622 58.0272C199.831 69.5072 191.135 70.2576 196.76 77.4928C202.385 84.728 207.505 81.48 206.478 90.4624C205.45 99.4448 202.133 102.687 202.133 102.687" stroke="white" stroke-miterlimit="10"/>
<path d="M191.158 44.0664C192.279 44.3237 193.368 44.6992 194.407 45.1864" stroke="white" stroke-miterlimit="10"/>
<path d="M188.345 47.3144C188.345 47.3144 195.761 49.308 198.063 55.2944C200.365 61.2808 191.175 66.276 190.647 70.0168" stroke="white" stroke-miterlimit="10"/>
<path d="M188.018 144.973C187.915 141.54 187.869 136.959 188.081 132.126C188.529 122.158 200.743 108.937 201.185 106.557C201.627 104.177 200.52 103.757 200.52 103.757L176.308 93.5704C165.052 100.783 162.314 121.761 161.643 131.55L188.018 144.973Z" fill="#47967E" stroke="#263238" stroke-linecap="round" stroke-linejoin="round"/>
<path d="M197.891 104.39C197.891 104.39 199.923 105.627 197.891 107.61C195.859 109.592 190.268 118.02 187.972 122.976" stroke="#263238" stroke-width="0.5" stroke-linecap="round" stroke-linejoin="round"/>
<path d="M186.967 125.44C186.967 125.44 185.188 129.405 185.446 133.37C185.705 137.334 185.699 141.053 185.699 141.053" stroke="#263238" stroke-width="0.5" stroke-linecap="round" stroke-linejoin="round"/>
<path d="M139.475 99.008C140.542 101.718 141.828 107.548 140.973 110.88C140.531 112.61 139.05 116.245 137.736 119.342L170.379 135.985C170.344 129.354 170.431 118.888 171.297 116.945C172.577 114.027 182.829 86.5312 182.203 80.2816C181.578 74.032 169.179 65.072 169.179 65.072L171.079 49.84L159.766 56.5096C159.766 56.5096 158.48 62.5464 157.2 64.008C155.92 65.4696 145.456 67.5472 142.465 71.288C139.475 75.0288 140.542 86.4976 140.542 87.1192C140.542 87.7408 138.407 96.32 139.475 99.008Z" fill="white"/>
<mask id="mask2_1_218" style="mask-type:luminance" maskUnits="userSpaceOnUse" x="137" y="49" width="46" height="87">
<path d="M139.475 99.008C140.542 101.718 141.828 107.548 140.973 110.88C140.531 112.61 139.05 116.245 137.736 119.342L170.379 135.985C170.344 129.354 170.431 118.888 171.297 116.945C172.577 114.027 182.829 86.5312 182.203 80.2816C181.578 74.032 169.179 65.072 169.179 65.072L171.079 49.84L159.766 56.5096C159.766 56.5096 158.48 62.5464 157.2 64.008C155.92 65.4696 145.456 67.5472 142.465 71.288C139.475 75.0288 140.542 86.4976 140.542 87.1192C140.542 87.7408 138.407 96.32 139.475 99.008Z" fill="white"/>
</mask>
<g mask="url(#mask2_1_218)">
<g style="mix-blend-mode:multiply" opacity="0.5">
<path d="M182.186 80.2592C181.543 74.0096 169.162 65.0496 169.162 65.0496L171.079 49.84L159.766 56.5096C159.766 56.5096 159.393 58.2512 158.853 60.0936C159.582 60.032 160.397 59.9312 161.31 59.7744C165.626 59.0296 167.916 57.5344 167.916 57.5344L165.62 66.9536C165.62 66.9536 177.307 73.6736 180.355 81.8272C180.768 82.9472 181.21 83.9944 181.664 85.036C182.05 83.4727 182.226 81.8669 182.186 80.2592Z" fill="#47967E"/>
</g>
</g>
<path d="M139.475 99.008C140.542 101.718 141.828 107.548 140.973 110.88C140.531 112.61 139.05 116.245 137.736 119.342L170.379 135.985C170.344 129.354 170.431 118.888 171.297 116.945C172.577 114.027 182.829 86.5312 182.203 80.2816C181.578 74.032 169.179 65.072 169.179 65.072L171.079 49.84L159.766 56.5096C159.766 56.5096 158.48 62.5464 157.2 64.008C155.92 65.4696 145.456 67.5472 142.465 71.288C139.475 75.0288 140.542 86.4976 140.542 87.1192C140.542 87.7408 138.407 96.32 139.475 99.008Z" stroke="#263238" stroke-linecap="round" stroke-linejoin="round"/>
<path d="M139.475 99.008C140.542 101.718 141.828 107.548 140.973 110.88C140.531 112.61 139.05 116.245 137.736 119.342L170.379 135.985C170.344 129.354 170.431 118.888 171.297 116.945C172.577 114.027 182.829 86.5312 182.203 80.2816C181.807 76.3896 176.859 71.456 173.18 68.2808C169.558 72.0272 161.7 79.016 155.96 75.9024C150.794 73.1024 151.121 68.8464 151.885 66.3152C148.395 67.5696 144.222 69.1712 142.505 71.3216C139.515 75.0736 140.583 86.5312 140.583 87.1528C140.583 87.7744 138.407 96.32 139.475 99.008Z" fill="#263238" stroke="#263238" stroke-linecap="round" stroke-linejoin="round"/>
<path d="M158.543 91.6048L151.437 88.3512C151.437 88.3512 149.434 85.1032 148.326 85.1032C147.218 85.1032 146.546 89.656 146.546 89.656C146.546 89.656 142.775 93.1224 144.107 96.5888C145.439 100.055 150.323 105.258 156.322 103.309C162.32 101.36 160.541 95.2952 160.541 95.2952C160.541 95.2952 162.986 91.1792 162.986 90.3112C162.986 89.4432 158.543 91.6048 158.543 91.6048Z" fill="white" stroke="#263238" stroke-linecap="round" stroke-linejoin="round"/>
<path d="M143.321 24.4216C143.321 24.4216 144.819 31.9256 144.601 37.1336C144.382 42.3416 142.253 44.4136 142.879 46.7152C143.504 49.0168 151.207 57.5512 155.903 58.38C160.598 59.2088 171.705 52.1304 174.908 49.0056C178.111 45.8808 178.535 41.3 178.111 39.424C177.686 37.548 175.975 22.5512 169.57 16.5088C163.164 10.4664 146.311 11.0936 143.321 24.4216Z" fill="white"/>
<mask id="mask3_1_218" style="mask-type:luminance" maskUnits="userSpaceOnUse" x="142" y="12" width="37" height="47">
<path d="M143.321 24.4216C143.321 24.4216 144.819 31.9256 144.601 37.1336C144.382 42.3416 142.253 44.4136 142.879 46.7152C143.504 49.0168 151.207 57.5512 155.903 58.38C160.598 59.2088 171.705 52.1304 174.908 49.0056C178.111 45.8808 178.535 41.3 178.111 39.424C177.686 37.548 175.975 22.5512 169.57 16.5088C163.164 10.4664 146.311 11.0936 143.321 24.4216Z" fill="white"/>
</mask>
<g mask="url(#mask3_1_218)">
<g style="mix-blend-mode:multiply" opacity="0.5">
<path d="M169.604 16.5088C167.21 14.2688 163.353 12.9248 159.306 12.8408L159.042 20.6136C159.042 20.6136 157.768 28.2968 162.343 34.4904C166.918 40.684 170.982 42.4256 171.487 44.9008C171.992 47.376 169.696 49.84 163.864 54.0736C161.583 55.7575 159.14 57.2204 156.568 58.4416C161.568 58.6152 171.871 52.0016 174.936 49.0056C178.139 45.8808 178.564 41.3 178.139 39.424C177.715 37.548 175.993 22.5512 169.604 16.5088Z" fill="#47967E"/>
</g>
</g>
<path d="M143.321 24.4216C143.321 24.4216 144.819 31.9256 144.601 37.1336C144.382 42.3416 142.253 44.4136 142.879 46.7152C143.504 49.0168 151.207 57.5512 155.903 58.38C160.598 59.2088 171.705 52.1304 174.908 49.0056C178.111 45.8808 178.535 41.3 178.111 39.424C177.686 37.548 175.975 22.5512 169.57 16.5088C163.164 10.4664 146.311 11.0936 143.321 24.4216Z" stroke="#263238" stroke-linecap="round" stroke-linejoin="round"/>
<path d="M151.437 39.8384C151.437 39.8384 150.794 43.7976 149.715 45.0464C150.553 45.7594 151.599 46.1981 152.705 46.3008" stroke="#263238" stroke-linecap="round" stroke-linejoin="round"/>
<path d="M151.862 49.84C153.253 50.4416 154.769 50.7174 156.289 50.6455C157.809 50.5735 159.29 50.1558 160.615 49.4256" stroke="#263238" stroke-linecap="round" stroke-linejoin="round"/>
<path d="M159.548 37.7552C159.548 38.4496 159.215 39.0096 158.801 39.0096C158.388 39.0096 158.055 38.4496 158.055 37.7552C158.055 37.0608 158.388 36.5064 158.801 36.5064C159.215 36.5064 159.548 37.0664 159.548 37.7552Z" fill="#263238"/>
<path d="M148.98 36.092C148.98 36.7808 148.647 37.3408 148.234 37.3408C147.821 37.3408 147.488 36.7808 147.488 36.092C147.488 35.4032 147.821 34.8432 148.234 34.8432C148.647 34.8432 148.98 35.4032 148.98 36.092Z" fill="#263238"/>
<path d="M146.099 30.6768C146.697 30.3121 147.365 30.0687 148.062 29.9609C148.76 29.8532 149.472 29.8833 150.157 30.0496" stroke="#263238" stroke-linecap="round" stroke-linejoin="round"/>
<path d="M156.132 30.884C156.132 30.884 157.412 30.2568 160.19 31.9256" stroke="#263238" stroke-linecap="round" stroke-linejoin="round"/>
<path d="M157.412 18.7992C157.412 18.7992 151.437 23.5928 148.446 26.5048C145.456 29.4168 144.176 31.5056 139.693 29.6352C135.21 27.7648 132.001 21.2968 137.971 13.5912C143.94 5.8856 155.484 3.5896 166.797 6.7144C178.111 9.8392 182.817 16.9232 183.667 24.6344C184.517 32.3456 182.806 40.88 178.788 43.176C174.77 45.472 165.758 36.092 162.555 30.2568C160.548 26.5691 158.829 22.7391 157.412 18.7992Z" fill="#263238" stroke="#263238" stroke-linecap="round" stroke-linejoin="round"/>
<path d="M157.412 18.7992C157.412 18.7992 141.289 21.1176 140.525 24.6064C139.762 28.0952 144.618 27.104 144.618 27.104" stroke="white" stroke-miterlimit="10"/>
<path d="M138.447 21.1008C137.357 23.3744 138.223 24.8584 138.223 24.8584" stroke="white" stroke-miterlimit="10"/>
<path d="M173.513 11.3848C173.513 11.3848 157.912 8.89281 157.912 15.624C157.912 15.624 148.452 12.3816 142.316 16.8728C141.395 17.5278 140.55 18.2789 139.796 19.1128" stroke="white" stroke-miterlimit="10"/>
<path d="M158.698 17.1248C158.698 17.1248 162.676 29.6464 170.976 32.844" stroke="white" stroke-miterlimit="10"/>
<path d="M166.975 20.4904C170.172 23.0664 174.747 25.6088 180.177 25.3568" stroke="white" stroke-miterlimit="10"/>
<path d="M162.004 15.3776C162.752 16.3807 163.573 17.3296 164.461 18.2168" stroke="white" stroke-miterlimit="10"/>
<path d="M141.828 31.7184L166.809 35.8848C166.809 35.8848 166.809 39.592 165.741 41.4848C164.673 43.3776 163.393 43.4 160.615 43.4C157.837 43.4 153.974 41.72 153.785 41.1096C153.343 39.6312 153.641 34.7536 153.641 34.7536L151.649 34.44C151.649 34.44 151.908 40.124 150.84 40.7512C149.772 41.3784 142.724 40.124 141.444 38.4608C140.164 36.7976 140.973 31.5056 141.828 31.7184Z" stroke="#263238" stroke-linecap="round" stroke-linejoin="round"/>
<path d="M166.809 35.8848L177.916 34.0088V35.4648L166.809 38.1752V35.8848Z" fill="#47967E" stroke="#263238" stroke-linecap="round" stroke-linejoin="round"/>
<path d="M186.113 37.1815C186.98 31.914 184.946 27.2146 181.569 26.6851C178.191 26.1556 174.75 29.9965 173.883 35.264C173.015 40.5314 175.049 45.2308 178.426 45.7603C181.804 46.2899 185.245 42.449 186.113 37.1815Z" fill="#47967E" stroke="#263238" stroke-linecap="round" stroke-linejoin="round"/>
<path d="M187.897 37.3912C187.168 41.8264 184.637 45.1136 182.255 44.7384C179.873 44.3632 178.524 40.4712 179.253 36.036C179.982 31.6008 182.508 28.3192 184.895 28.6944C187.283 29.0696 188.626 32.9616 187.897 37.3912Z" fill="#47967E" stroke="#263238" stroke-linecap="round" stroke-linejoin="round"/>
<path d="M184.528 18.7992C184.941 24.6291 184.29 30.4841 182.605 36.092C182.605 36.092 182.393 39.452 185.596 37.968C188.799 36.484 188.374 23.8 187.943 18.592C187.513 13.384 183.466 14.84 184.528 18.7992Z" fill="white" stroke="#263238" stroke-linecap="round" stroke-linejoin="round"/>
<path d="M172.577 9.0048C172.577 9.0048 177.485 7.756 180.039 12.1352C182.594 16.5144 182.175 20.468 185.779 20.8824C189.384 21.2968 189.625 17.3432 187.702 12.3424C185.779 7.3416 181.727 3.5896 176.171 3.1752C170.614 2.7608 167.882 7.1344 167.882 7.1344C167.882 7.1344 170.867 7.5488 172.577 9.0048Z" fill="#47967E" stroke="#263238" stroke-linecap="round" stroke-linejoin="round"/>
<path d="M172.147 86.9232L157.412 119.633C157.412 119.633 117.267 126.913 113.639 126.913C110.011 126.913 102.733 129.41 101.252 130.273C99.7711 131.135 85.2547 137.637 88.0501 138.04C89.7721 138.292 94.2263 135.901 94.2263 135.901C94.2263 135.901 87.1776 139.261 87.8147 140.274C88.4519 141.288 96.9987 137.15 96.9987 137.15C96.9987 137.15 89.1866 141.63 90.788 141.882C92.246 142.134 94.0082 141.322 95.5063 140.274C96.8129 139.492 98.22 138.882 99.6908 138.46C99.6908 138.46 96.2468 140.7 95.8393 141.719C95.4317 142.738 96.6945 142.134 97.9745 141.719C100.37 140.711 102.686 139.532 104.903 138.191C105.752 137.564 108.318 136.315 110.029 134.859L113.444 131.942C113.444 131.942 136.289 132.563 146.736 132.149C157.183 131.734 162.326 130.693 166.171 126.941C170.017 123.189 180.906 99.4392 183.466 92.9824C186.026 86.5256 184.321 82.7736 181.744 78.4224" fill="white"/>
<mask id="mask4_1_218" style="mask-type:luminance" maskUnits="userSpaceOnUse" x="87" y="78" width="98" height="65">
<path d="M172.147 86.9232L157.412 119.633C157.412 119.633 117.267 126.913 113.639 126.913C110.011 126.913 102.733 129.41 101.252 130.273C99.7711 131.135 85.2547 137.637 88.0501 138.04C89.7721 138.292 94.2263 135.901 94.2263 135.901C94.2263 135.901 87.1776 139.261 87.8147 140.274C88.4519 141.288 96.9987 137.15 96.9987 137.15C96.9987 137.15 89.1866 141.63 90.788 141.882C92.246 142.134 94.0082 141.322 95.5063 140.274C96.8129 139.492 98.22 138.882 99.6908 138.46C99.6908 138.46 96.2468 140.7 95.8393 141.719C95.4317 142.738 96.6945 142.134 97.9745 141.719C100.37 140.711 102.686 139.532 104.903 138.191C105.752 137.564 108.318 136.315 110.029 134.859L113.444 131.942C113.444 131.942 136.289 132.563 146.736 132.149C157.183 131.734 162.326 130.693 166.171 126.941C170.017 123.189 180.906 99.4392 183.466 92.9824C186.026 86.5256 184.321 82.7736 181.744 78.4224" fill="white"/>
</mask>
<g mask="url(#mask4_1_218)">
<g style="mix-blend-mode:multiply" opacity="0.5">
<path d="M172.744 108.354C165.856 120.994 160.041 124.958 153.945 127.954C147.849 130.95 114.311 131.673 114.311 131.673L115.723 132.003C121.778 132.149 138.292 132.49 146.719 132.154C157.183 131.74 162.308 130.698 166.154 126.946C170 123.194 180.889 99.4448 183.449 92.988C184.637 89.9976 184.901 87.5896 184.597 85.428L183.145 86.3184C180.136 93.8615 176.663 101.22 172.744 108.354Z" fill="#47967E"/>
</g>
</g>
<path d="M172.147 86.9232L157.412 119.633C157.412 119.633 117.267 126.913 113.639 126.913C110.011 126.913 102.733 129.41 101.252 130.273C99.7711 131.135 85.2547 137.637 88.0501 138.04C89.7721 138.292 94.2263 135.901 94.2263 135.901C94.2263 135.901 87.1776 139.261 87.8147 140.274C88.4519 141.288 96.9987 137.15 96.9987 137.15C96.9987 137.15 89.1866 141.63 90.788 141.882C92.246 142.134 94.0082 141.322 95.5063 140.274C96.8129 139.492 98.22 138.882 99.6908 138.46C99.6908 138.46 96.2468 140.7 95.8393 141.719C95.4317 142.738 96.6945 142.134 97.9745 141.719C100.37 140.711 102.686 139.532 104.903 138.191C105.752 137.564 108.318 136.315 110.029 134.859L113.444 131.942C113.444 131.942 136.289 132.563 146.736 132.149C157.183 131.734 162.326 130.693 166.171 126.941C170.017 123.189 180.906 99.4392 183.466 92.9824C186.026 86.5256 184.321 82.7736 181.744 78.4224" stroke="#263238" stroke-miterlimit="10"/>
<path d="M171.9 86.1L167.417 97.44C170.712 95.7264 176.894 93.4248 181.824 96.88C182.519 95.2896 183.087 93.9456 183.466 92.988C186.032 86.5312 184.321 82.7792 181.744 78.428" fill="#263238"/>
<path d="M171.9 86.1L167.417 97.44C170.712 95.7264 176.894 93.4248 181.824 96.88C182.519 95.2896 183.087 93.9456 183.466 92.988C186.032 86.5312 184.321 82.7792 181.744 78.428" stroke="#263238" stroke-linecap="round" stroke-linejoin="round"/>
<path d="M140.175 101.147C135.841 102.385 118.725 107.274 117.135 107.638C116.15 107.872 115.151 108.045 114.144 108.158C114.144 108.158 108.163 105.655 106.562 104.513C104.96 103.37 103.037 104.093 102.079 104.513C101.12 104.933 100.357 107.845 102.188 107.845C104.019 107.845 104.323 107.738 106.349 109.407C108.375 111.076 108.381 111.91 109.874 112.532C111.366 113.154 113.828 112.739 115.108 112.532C116.256 112.347 136.105 111.059 140.99 110.807C141.627 108.186 140.99 104.093 140.175 101.147Z" fill="white"/>
<mask id="mask5_1_218" style="mask-type:luminance" maskUnits="userSpaceOnUse" x="101" y="101" width="41" height="12">
<path d="M140.175 101.147C135.841 102.385 118.725 107.274 117.135 107.638C116.15 107.872 115.151 108.045 114.144 108.158C114.144 108.158 108.163 105.655 106.562 104.513C104.96 103.37 103.037 104.093 102.079 104.513C101.12 104.933 100.357 107.845 102.188 107.845C104.019 107.845 104.323 107.738 106.349 109.407C108.375 111.076 108.381 111.91 109.874 112.532C111.366 113.154 113.828 112.739 115.108 112.532C116.256 112.347 136.105 111.059 140.99 110.807C141.627 108.186 140.99 104.093 140.175 101.147Z" fill="white"/>
</mask>
<g mask="url(#mask5_1_218)">
<g style="mix-blend-mode:multiply" opacity="0.5">
<path d="M140.858 104.16L115.108 112.56C116.256 112.375 136.105 111.087 140.99 110.835C141.426 109.01 141.266 106.518 140.858 104.16Z" fill="#47967E"/>
</g>
</g>
<path d="M140.175 101.147C135.841 102.385 118.725 107.274 117.135 107.638C116.15 107.872 115.151 108.045 114.144 108.158C114.144 108.158 108.163 105.655 106.562 104.513C104.96 103.37 103.037 104.093 102.079 104.513C101.12 104.933 100.357 107.845 102.188 107.845C104.019 107.845 104.323 107.738 106.349 109.407C108.375 111.076 108.381 111.91 109.874 112.532C111.366 113.154 113.828 112.739 115.108 112.532C116.256 112.347 136.105 111.059 140.99 110.807C141.627 108.186 140.99 104.093 140.175 101.147Z" stroke="#263238" stroke-linecap="round" stroke-linejoin="round"/>
<path d="M97.3776 107.951C97.3776 107.951 95.1332 109.2 94.5076 110.656C93.8819 112.112 95.1447 111.698 95.5752 111.39C96.0057 111.082 97.8196 109.614 97.8196 109.614L97.3776 107.951Z" fill="white" stroke="#263238" stroke-linecap="round" stroke-linejoin="round"/>
<path d="M98.0204 106.904C97.6002 107.167 97.2678 107.544 97.0638 107.989C96.8599 108.433 96.7934 108.926 96.8724 109.407C97.0848 111.177 99.0077 113.781 99.2258 112.739C99.444 111.698 98.0204 106.904 98.0204 106.904Z" fill="white" stroke="#263238" stroke-linecap="round" stroke-linejoin="round"/>
<path d="M100.69 105.342C100.69 105.342 98.6576 105.862 98.0204 106.904C97.3833 107.946 98.4452 112.431 99.1972 112.739C99.3567 112.809 99.5305 112.843 99.7053 112.837C99.88 112.831 100.051 112.787 100.206 112.707C100.36 112.627 100.494 112.514 100.597 112.376C100.699 112.238 100.769 112.078 100.799 111.91C101.011 111.177 100.69 105.342 100.69 105.342Z" fill="white" stroke="#263238" stroke-linecap="round" stroke-linejoin="round"/>
<path d="M103.255 104.3C103.255 104.3 100.58 104.3 100.265 105.554C99.9491 106.809 99.4095 112.218 99.9433 113.053C100.477 113.887 101.332 113.574 101.757 112.532C102.182 111.49 103.255 104.3 103.255 104.3Z" fill="white" stroke="#263238" stroke-linecap="round" stroke-linejoin="round"/>
<path d="M105.683 94.5952L101.298 114.078L101.987 116.564C101.997 116.602 102.018 116.637 102.046 116.665C102.075 116.693 102.11 116.713 102.149 116.723C102.188 116.733 102.229 116.733 102.268 116.723C102.307 116.713 102.343 116.693 102.371 116.665L104.289 114.806L107.491 95.116L105.683 94.5952Z" fill="#263238"/>
<path d="M109.983 110.32C109.983 110.32 107.526 111.261 105.603 112.095C103.68 112.93 101.757 113.344 101.97 114.492C102.182 115.64 103.037 115.22 104.426 114.806C106.332 114.157 108.302 113.703 110.304 113.45C112.973 113.137 115.108 110.74 115.108 110.74" fill="white"/>
<path d="M109.983 110.32C109.983 110.32 107.526 111.261 105.603 112.095C103.68 112.93 101.757 113.344 101.97 114.492C102.182 115.64 103.037 115.22 104.426 114.806C106.332 114.157 108.302 113.703 110.304 113.45C112.973 113.137 115.108 110.74 115.108 110.74" stroke="#263238" stroke-linecap="round" stroke-linejoin="round"/>
<path d="M101.355 114.38L101.803 116.217C101.825 116.305 101.87 116.387 101.935 116.453C101.999 116.519 102.08 116.567 102.169 116.593C102.259 116.62 102.354 116.622 102.444 116.601C102.535 116.58 102.619 116.537 102.687 116.474L103.737 115.5" stroke="white" stroke-width="0.5" stroke-linecap="round" stroke-linejoin="round"/>
<path d="M101.304 114.078L103.571 104.21" stroke="white" stroke-width="0.5" stroke-linecap="round" stroke-linejoin="round"/>
<path d="M22.8551 75.3872L51.8134 101.662" stroke="#263238" stroke-width="0.5" stroke-linecap="round" stroke-linejoin="round"/>
</svg>
